<?xml version="1.0" encoding="utf-8"?>
<!-- Generator: Adobe Illustrator 19.1.0, SVG Export Plug-In . SVG Version: 6.00 Build 0)  -->
<svg version="1.1" id="text-labels" xmlns="http://www.w3.org/2000/svg" xmlns:xlink="http://www.w3.org/1999/xlink" x="0px"
	 y="0px" viewBox="-69 152 460 298" style="enable-background:new -69 152 460 298;" xml:space="preserve">
<style type="text/css">
	.st0{font-family:'ArialMT';}
	.st1{font-size:5px;}
	.st2{font-size:7.5px;}
	.st3{font-family:'Kailasa';}
</style>
<text transform="matrix(1 0 0 1 -1.9594 203.2277)" class="st0 st1">Indigo</text>
<text transform="matrix(1 0 0 1 -3.2094 209.4777)" class="st0 st1">Plateau</text>
<text transform="matrix(1 0 0 1 -44.375 292.3849)" class="st0 st2">Mt.</text>
<text transform="matrix(1 0 0 1 -50 301.7599)" class="st0 st2">Silver</text>
<text transform="matrix(1 0 0 1 192.8574 288.9148)" class="st0 st2">Saffaron</text>
<text transform="matrix(1 0 0 1 218.8574 288.9148)" class="st3 st2"> </text>
<text transform="matrix(1 0 0 1 201.0385 298.2898)" class="st0 st2">City</text>
<text transform="matrix(1 0 0 1 64.1665 230.9223)" class="st0 st2">Pewter</text>
<text transform="matrix(1 0 0 1 86.1665 230.9223)" class="st3 st2"> </text>
<text transform="matrix(1 0 0 1 68.5977 240.2973)" class="st0 st2">City</text>
<text transform="matrix(1 0 0 1 190.6031 332.7)" class="st0 st2">Vermillion</text>
<text transform="matrix(1 0 0 1 201.8531 342.075)" class="st0 st2">City</text>
<text transform="matrix(1 0 0 1 234.8598 203.757)" class="st0 st1">Bill&apos;s</text>
<text transform="matrix(1 0 0 1 236.1098 213.132)" class="st0 st1">House</text>
<text transform="matrix(1 0 0 1 74.6441 302.1707)" class="st0 st1">Viridian</text>
<text transform="matrix(1 0 0 1 79.6441 308.4207)" class="st0 st1">City</text>
<text transform="matrix(1 0 0 1 75.4566 377.7569)" class="st0 st1">Pallet</text>
<text transform="matrix(1 0 0 1 77.9566 384.0069)" class="st0 st1">Town</text>
<text transform="matrix(1 0 0 1 25.0045 436.9998)" class="st0 st1">Cinnabar</text>
<text transform="matrix(1 0 0 1 43.9045 436.9998)" class="st3 st1"> </text>
<text transform="matrix(1 0 0 1 46.4045 436.9998)" class="st0 st1">Island</text>
<text transform="matrix(1 0 0 1 298.0219 289.0949)" class="st0 st1">Lavender</text>
<text transform="matrix(1 0 0 1 303.0219 295.3449)" class="st0 st1">Town</text>
<text transform="matrix(1 0 0 1 193.3575 240.2839)" class="st0 st2">Cerulean</text>
<text transform="matrix(1 0 0 1 200.8575 249.6589)" class="st0 st2">City</text>
<text transform="matrix(1 0 0 1 137.7047 295.0422)" class="st0 st2">Celadon</text>
<text transform="matrix(1 0 0 1 143.3297 304.4172)" class="st0 st2">City</text>
<text transform="matrix(1 0 0 1 195.134 396.82)" class="st0 st2">Fuchsia</text>
<text transform="matrix(1 0 0 1 200.759 406.195)" class="st0 st2">City</text>
</svg>
