<?xml version="1.0" encoding="UTF-8" standalone="no"?>
<svg
   xmlns:dc="http://purl.org/dc/elements/1.1/"
   xmlns:cc="http://creativecommons.org/ns#"
   xmlns:rdf="http://www.w3.org/1999/02/22-rdf-syntax-ns#"
   xmlns:svg="http://www.w3.org/2000/svg"
   xmlns="http://www.w3.org/2000/svg"
   xmlns:xlink="http://www.w3.org/1999/xlink"
   xmlns:sodipodi="http://sodipodi.sourceforge.net/DTD/sodipodi-0.dtd"
   xmlns:inkscape="http://www.inkscape.org/namespaces/inkscape"
   xml:space="preserve"
   style="enable-background:new 8 37.1 460 298;"
   viewBox="8 37.1 460 298"
   y="0px"
   x="0px"
   id="svg2"
   version="1.1"
   inkscape:version="0.91 r13725"
   sodipodi:docname="gym-map-1.svg"><sodipodi:namedview
     pagecolor="#ffffff"
     bordercolor="#666666"
     borderopacity="1"
     objecttolerance="10"
     gridtolerance="10"
     guidetolerance="10"
     inkscape:pageopacity="0"
     inkscape:pageshadow="2"
     inkscape:window-width="1277"
     inkscape:window-height="735"
     id="namedview36"
     showgrid="false"
     inkscape:snap-text-baseline="false"
     inkscape:zoom="1.9061139"
     inkscape:cx="192.87498"
     inkscape:cy="163.53626"
     inkscape:window-x="0"
     inkscape:window-y="0"
     inkscape:window-maximized="0"
     inkscape:current-layer="layer2" /><metadata
     id="metadata4252"><rdf:RDF><cc:Work
         rdf:about=""><dc:format>image/svg+xml</dc:format><dc:type
           rdf:resource="http://purl.org/dc/dcmitype/StillImage" /><dc:title /></cc:Work></rdf:RDF></metadata><defs
     id="defs4250" /><style
     id="style4215"
     type="text/css">
	.st0{display:none;}
	.st1{fill:none;stroke:#000000;stroke-linejoin:round;}
</style><g
     class="st0"
     id="layer1"><image
       sodipodi:absref="/Users/krys/Documents/nycda/hw/pokemon/AF698BD81CDA0468.jpeg"
       xlink:href="AF698BD81CDA0468.jpeg"
       transform="matrix(0.4728 0 0 0.4484 44.6744 9.9708)"
       id="image3408"
       height="698"
       width="1024"
       style="display:inline;overflow:visible;enable-background:new    ;" /></g><path
     d="M36.4,251.7l86.2,0.4V166h59.2l-0.2-8.5h-58.9l-0.2-72.3l-8.4,0.2l0.1,72l-27.6-0.1l0.2,8.7H114  l-0.2,77.8l-77.4,0V251.7z"
     class="st1"
     id="path4328" /><path
     d="M67.5,148.9l13.6,0.1c4.4,0,5.3,3.2,5.3,5.8v14.1c0,2.6-1,5.8-5.3,5.9l-14.1,0.6  c-2.6,0.1-5.8-2.7-5.9-5.3l-0.6-14.7c-0.1-3.2,2.5-6.5,5.7-6.5L67.5,148.9z"
     class="st1"
     id="path4330" /><path
     d="M191.3,122h9.7v27.5h-9.1L191.3,122z"
     class="st1"
     id="path4334" /><path
     d="M172.4,122.1l30.9-0.1c2.6,0,6.2-2,6.3-4.6l0.8-28.2c0,0,0.4-8.4-7.9-8.4H176  c-7.2,0-7.4,5.5-7.6,10.5l-0.3,25C168,119.2,169.8,122.1,172.4,122.1L172.4,122.1z"
     class="st1"
     id="path4336" /><path
     d="M209.9,106.6l-0.2,9l89.8,0l-0.2-8.8L209.9,106.6z"
     class="st1"
     id="path4338" /><path
     d="M308.9,97.8l9.5-0.1l0.1-21.2l23.6-0.1l0.1-8.9L309,67.7L308.9,97.8z"
     class="st1"
     id="path4340" /><path
     d="M347.6,60.2c3.6,0,12.6,0,16,0c3.4,0,4.8,1.8,4.9,4.2c0.1,2.4,0.1,12.8,0.1,16.1  s-3.3,4.9-5.8,4.9c-2.5,0-12,0-13.9,0s-6.8-0.6-6.9-4.7c-0.1-4.1,0.3-13.9,0.3-13.9C342.6,62.2,344,60.2,347.6,60.2L347.6,60.2z"
     class="st1"
     id="path4342" /><path
     d="M303.8,98l33.1-0.2c7.9-0.5,8.3,2.7,8.3,5.4v15.7c0,3.4-1.5,4.9-8.3,4.9h-29.4  c-8,0-7.7-4.4-7.7-7.1l-0.3-12.6C299.5,101.5,300.6,98,303.8,98L303.8,98z"
     class="st1"
     id="path4344" /><path
     d="M345.4,107.3l80.2-0.2l0.6,29.1l-9.1,0l-0.2-21.1h-71.2L345.4,107.3z"
     class="st1"
     id="path4346" /><path
     d="M308.6,123.8l9.4-0.1l0.1,15.7l-9.4,0.2L308.6,123.8z"
     class="st1"
     id="path4348" /><path
     d="M407.2,145.8c-0.1-6.8,2.5-9.2,5.5-9.3c3-0.1,13.1-0.3,16.3-0.3c3.2,0.1,6.3,1.5,6.3,6.3  c0,4.8-0.1,20.9,0,29.3c0.1,8.4-5.7,7.9-5.7,7.9c-2.7,0.3-12.3,0-16,0c-3.7,0-6.2-1.6-6.3-6.7C407.1,167.8,407.3,152.6,407.2,145.8z  "
     class="st1"
     id="path4350" /><path
     d="M306.7,139.7l32,0.3c0,0,5.3,0.3,5.2,5.9s-0.3,19.9-0.4,25.6c-0.1,5.7-1.5,7.6-7.8,7.6  c-6.3,0-22.1,0-27.9,0c-5.9,0-6.4-5.1-6.5-8.4c-0.1-3.4,0.1-15.1,0-21.8C301.2,142.1,303,139.7,306.7,139.7z"
     class="st1"
     id="path4352" /><path
     d="M287.8,161.6l-0.1,8.3l13.3-0.1l0-8.3L287.8,161.6z"
     class="st1"
     id="path4354" /><path
     d="M279.8,152.8c3.2,0,8,1.3,8,4.6l0,16.6c0,2.7-4,4.8-6.7,4.7l-32.2-0.2c-4.2,0-6.2-2-6.3-4.6  l-0.3-15c-0.1-3.4,1.7-6.1,7.8-6.1H279.8z"
     class="st1"
     id="path4356" /><path
     d="M242.3,169.5l0.2-7.9h-14l0.4,110.8l70.4,0.4V264l-61.7,0l-0.4-94.5L242.3,169.5z"
     class="st1"
     id="path4358" /><path
     d="M343.5,170l63.6,0l-0.1-8.6h-63.1L343.5,170z"
     class="st1"
     id="path4360" /><path
     d="M308.9,179.1l9.2,0.2v10.1l-9.1,0.1L308.9,179.1z"
     class="st1"
     id="path4362" /><path
     d="M345.4,207.1h71.3v22.3l-36.6,0.3v34l-35,0.3l0.3,8.7l44-0.3V238l36.4-0.1l-0.3-58.1h-9v18.9  c-10.3,0-68.2-0.1-71.1,0V207.1z"
     class="st1"
     id="path4364" /><path
     d="M307.7,189.5c5.4,0.1,23.6,0.4,30.2,0.5c6.6,0.1,7.5,5.2,7.5,6.2l-0.3,14.8  c0,0.5,0.8,5.2-5.8,5.3c-6.6,0.1-23.7-0.3-30.1,0c-6.4,0.3-9.7-2.3-10-5.8c-0.3-3.6,0.3-10.1,0.1-14.2  C299.3,192.5,302.2,189.4,307.7,189.5z"
     class="st1"
     id="path4366" /><path
     d="M307.5,253.7c0,0,27.1,0,31,0c5,0,6.6,2,6.8,7.3v16c-0.4,3-3.4,3.5-8,3.6  c-4.6,0-24.4,0.2-30.9-0.3c-6.5-0.5-7.1-3-7.1-5.6s0-13.6,0-14.6C299.3,254.1,303.5,253.7,307.5,253.7z"
     class="st1"
     id="path4368" /><path
     d="M187.4,149.4l18.4,0.2c2.1,0,4.3,2.3,4.3,4.4v33.5c0.4,5-6,5.8-6,5.8l-15.8-0.1  c-2.9,0-6.7-2.6-6.7-5.4l0.4-32.7C182,151.1,184.8,149.4,187.4,149.4L187.4,149.4z"
     class="st1"
     id="path4370" /><path
     d="M192.1,193.4l8.4,0l0.1,40.4H192L192.1,193.4z"
     class="st1"
     id="path4372" /><path
     d="M188.8,233.8c4.5,0,10.5,0.1,14.4,0.1c3.9,0,6.3,2.8,6.3,6.4c0,3.6-0.1,8.2-0.1,12.6  c-0.1,4.3-3.1,6.2-6.1,6.3s-10.5,0.3-14.1,0.1c-3.6-0.1-7-3-7-6.1c0-3.2,0.7-10.1,0.6-12.6C182.6,237.8,184.3,233.8,188.8,233.8  L188.8,233.8z"
     class="st1"
     id="path4374" /><path
     d="M191.8,291.6h9.1l-0.3-32.1h-9.1L191.8,291.6z"
     class="st1"
     id="path4376" /><path
     d="M189.3,291.7c4.5,0.2,11.1-0.1,14.9,0.4c3.7,0.6,5.6,4.2,5.6,7.9c0,3.6-0.3,5-0.3,10.9  s-5.9,6-8.7,6s-5.1,0.1-10.4,0c-5.3-0.1-7.9-4.6-7.9-7.7c0.1-3.2,0.2-7,0-10.3S184.8,291.5,189.3,291.7L189.3,291.7z"
     class="st1"
     id="path4378" /><path
     d="M209.5,298.6v9.1h109v-27.3l-9.6,0.1l-0.1,18.4L209.5,298.6z"
     class="st1"
     id="path4380" /><g
     id="layer3" /><path
     id="path4246"
     d="M123.6,85.2h-10c-6.5,0-7.9-0.2-7.9-6.7v-11c0-6.5,2.4-7.6,8.9-7.6h8c6.5,0,8.9,0.9,8.9,7.4v10.7  C131.5,84.5,130.1,85.2,123.6,85.2z"
     class="st1" /><g
     inkscape:groupmode="layer"
     id="layer2"
     inkscape:label="text"><text
       xml:space="preserve"
       style="font-style:normal;font-weight:normal;font-size:40px;line-height:125%;font-family:sans-serif;letter-spacing:0px;word-spacing:0px;fill:#000000;fill-opacity:1;stroke:none;stroke-width:1px;stroke-linecap:butt;stroke-linejoin:miter;stroke-opacity:1"
       x="118.0714"
       y="70.687683"
       id="text4165"
       sodipodi:linespacing="125%"><tspan
         sodipodi:role="line"
         id="tspan4167"
         x="118.0714"
         y="70.687683"
         style="font-style:normal;font-variant:normal;font-weight:normal;font-stretch:normal;font-size:5px;line-height:125%;font-family:Kailasa;-inkscape-font-specification:'Kailasa, Normal';text-align:center;writing-mode:lr-tb;text-anchor:middle">Indigo</tspan><tspan
         sodipodi:role="line"
         x="118.0714"
         y="76.937683"
         style="font-style:normal;font-variant:normal;font-weight:normal;font-stretch:normal;font-size:5px;line-height:125%;font-family:Kailasa;-inkscape-font-specification:'Kailasa, Normal';text-align:center;writing-mode:lr-tb;text-anchor:middle"
         id="tspan4301">Plateau</tspan></text>
<text
       xml:space="preserve"
       style="font-style:normal;font-weight:normal;font-size:40px;line-height:125%;font-family:sans-serif;letter-spacing:0px;word-spacing:0px;fill:#000000;fill-opacity:1;stroke:none;stroke-width:1px;stroke-linecap:butt;stroke-linejoin:miter;stroke-opacity:1"
       x="73.780838"
       y="159.84496"
       id="text4165-1"
       sodipodi:linespacing="125%"><tspan
         sodipodi:role="line"
         id="tspan4167-9"
         x="73.780838"
         y="159.84496"
         style="font-style:normal;font-variant:normal;font-weight:normal;font-stretch:normal;font-size:7.5px;line-height:125%;font-family:Kailasa;-inkscape-font-specification:'Kailasa, Normal';text-align:center;writing-mode:lr-tb;text-anchor:middle">Mt.</tspan><tspan
         sodipodi:role="line"
         x="73.780838"
         y="169.21996"
         style="font-style:normal;font-variant:normal;font-weight:normal;font-stretch:normal;font-size:7.5px;line-height:125%;font-family:Kailasa;-inkscape-font-specification:'Kailasa, Normal';text-align:center;writing-mode:lr-tb;text-anchor:middle"
         id="tspan4303">Silver</tspan></text>
<text
       xml:space="preserve"
       style="font-style:normal;font-weight:normal;font-size:40px;line-height:125%;font-family:sans-serif;letter-spacing:0px;word-spacing:0px;fill:#000000;fill-opacity:1;stroke:none;stroke-width:1px;stroke-linecap:butt;stroke-linejoin:miter;stroke-opacity:1"
       x="321.06934"
       y="156.37486"
       id="text4165-1-4"
       sodipodi:linespacing="125%"><tspan
         sodipodi:role="line"
         id="tspan4167-9-3"
         x="322.26318"
         y="156.37486"
         style="font-style:normal;font-variant:normal;font-weight:normal;font-stretch:normal;font-size:7.5px;line-height:125%;font-family:Kailasa;-inkscape-font-specification:'Kailasa, Normal';text-align:center;writing-mode:lr-tb;text-anchor:middle">Saffaron </tspan><tspan
         sodipodi:role="line"
         x="321.06934"
         y="165.74986"
         style="font-style:normal;font-variant:normal;font-weight:normal;font-stretch:normal;font-size:7.5px;line-height:125%;font-family:Kailasa;-inkscape-font-specification:'Kailasa, Normal';text-align:center;writing-mode:lr-tb;text-anchor:middle"
         id="tspan4205">City</tspan></text>
<text
       xml:space="preserve"
       style="font-style:normal;font-weight:normal;font-size:40px;line-height:125%;font-family:sans-serif;letter-spacing:0px;word-spacing:0px;fill:#000000;fill-opacity:1;stroke:none;stroke-width:1px;stroke-linecap:butt;stroke-linejoin:miter;stroke-opacity:1"
       x="321.35925"
       y="155.56673"
       id="text4165-1-4-7"
       sodipodi:linespacing="125%"><tspan
         sodipodi:role="line"
         x="321.35925"
         y="155.56673"
         style="font-style:normal;font-variant:normal;font-weight:normal;font-stretch:normal;font-size:7.5px;line-height:125%;font-family:Kailasa;-inkscape-font-specification:'Kailasa, Normal';text-align:center;writing-mode:lr-tb;text-anchor:middle"
         id="tspan4205-0" /></text>
<text
       xml:space="preserve"
       style="font-style:normal;font-weight:normal;font-size:40px;line-height:125%;font-family:sans-serif;letter-spacing:0px;word-spacing:0px;fill:#000000;fill-opacity:1;stroke:none;stroke-width:1px;stroke-linecap:butt;stroke-linejoin:miter;stroke-opacity:1"
       x="188.62848"
       y="98.382317"
       id="text4165-1-4-6"
       sodipodi:linespacing="125%"><tspan
         sodipodi:role="line"
         id="tspan4167-9-3-7"
         x="189.82233"
         y="98.382317"
         style="font-style:normal;font-variant:normal;font-weight:normal;font-stretch:normal;font-size:7.5px;line-height:125%;font-family:Kailasa;-inkscape-font-specification:'Kailasa, Normal';text-align:center;writing-mode:lr-tb;text-anchor:middle">Pewter </tspan><tspan
         sodipodi:role="line"
         x="188.62848"
         y="107.75732"
         style="font-style:normal;font-variant:normal;font-weight:normal;font-stretch:normal;font-size:7.5px;line-height:125%;font-family:Kailasa;-inkscape-font-specification:'Kailasa, Normal';text-align:center;writing-mode:lr-tb;text-anchor:middle"
         id="tspan4205-4">City</tspan></text>
<text
       xml:space="preserve"
       style="font-style:normal;font-weight:normal;font-size:40px;line-height:125%;font-family:sans-serif;letter-spacing:0px;word-spacing:0px;fill:#000000;fill-opacity:1;stroke:none;stroke-width:1px;stroke-linecap:butt;stroke-linejoin:miter;stroke-opacity:1"
       x="321.88388"
       y="200.16006"
       id="text4165-1-4-6-2"
       sodipodi:linespacing="125%"><tspan
         sodipodi:role="line"
         x="321.88388"
         y="200.16006"
         style="font-style:normal;font-variant:normal;font-weight:normal;font-stretch:normal;font-size:7.5px;line-height:125%;font-family:Kailasa;-inkscape-font-specification:'Kailasa, Normal';text-align:center;writing-mode:lr-tb;text-anchor:middle"
         id="tspan4274">Vermillion</tspan><tspan
         sodipodi:role="line"
         x="321.88388"
         y="209.53506"
         style="font-style:normal;font-variant:normal;font-weight:normal;font-stretch:normal;font-size:7.5px;line-height:125%;font-family:Kailasa;-inkscape-font-specification:'Kailasa, Normal';text-align:center;writing-mode:lr-tb;text-anchor:middle"
         id="tspan4438">City</tspan></text>
<text
       xml:space="preserve"
       style="font-style:normal;font-weight:normal;font-size:40px;line-height:125%;font-family:sans-serif;letter-spacing:0px;word-spacing:0px;fill:#000000;fill-opacity:1;stroke:none;stroke-width:1px;stroke-linecap:butt;stroke-linejoin:miter;stroke-opacity:1"
       x="354.89056"
       y="71.217041"
       id="text4165-1-4-6-2-1"
       sodipodi:linespacing="125%"><tspan
         sodipodi:role="line"
         x="354.89056"
         y="71.217041"
         style="font-style:normal;font-variant:normal;font-weight:normal;font-stretch:normal;font-size:5px;line-height:125%;font-family:Kailasa;-inkscape-font-specification:'Kailasa, Normal';text-align:center;writing-mode:lr;text-anchor:middle"
         id="tspan4274-0">Bill's</tspan><tspan
         sodipodi:role="line"
         x="354.89056"
         y="80.592041"
         style="font-style:normal;font-variant:normal;font-weight:normal;font-stretch:normal;font-size:5px;line-height:125%;font-family:Kailasa;-inkscape-font-specification:'Kailasa, Normal';text-align:center;writing-mode:lr;text-anchor:middle"
         id="tspan4299">House</tspan></text>
<text
       xml:space="preserve"
       style="font-style:normal;font-weight:normal;font-size:40px;line-height:125%;font-family:sans-serif;letter-spacing:0px;word-spacing:0px;fill:#000000;fill-opacity:1;stroke:none;stroke-width:1px;stroke-linecap:butt;stroke-linejoin:miter;stroke-opacity:1"
       x="197.17485"
       y="169.63057"
       id="text4165-1-4-6-2-1-3"
       sodipodi:linespacing="125%"><tspan
         sodipodi:role="line"
         x="197.17485"
         y="169.63057"
         style="font-style:normal;font-variant:normal;font-weight:normal;font-stretch:normal;font-size:5px;line-height:125%;font-family:Kailasa;-inkscape-font-specification:'Kailasa, Normal';text-align:center;writing-mode:lr-tb;text-anchor:middle"
         id="tspan4299-3">Viridian</tspan><tspan
         sodipodi:role="line"
         x="197.17485"
         y="175.88057"
         style="font-style:normal;font-variant:normal;font-weight:normal;font-stretch:normal;font-size:5px;line-height:125%;font-family:Kailasa;-inkscape-font-specification:'Kailasa, Normal';text-align:center;writing-mode:lr-tb;text-anchor:middle"
         id="tspan4328">City</tspan></text>
<text
       xml:space="preserve"
       style="font-style:normal;font-weight:normal;font-size:40px;line-height:125%;font-family:sans-serif;letter-spacing:0px;word-spacing:0px;fill:#000000;fill-opacity:1;stroke:none;stroke-width:1px;stroke-linecap:butt;stroke-linejoin:miter;stroke-opacity:1"
       x="194.96274"
       y="244.16769"
       id="text4165-1-4-6-2-1-3-0"
       sodipodi:linespacing="125%"><tspan
         sodipodi:role="line"
         x="194.96274"
         y="244.16769"
         style="font-style:normal;font-variant:normal;font-weight:normal;font-stretch:normal;font-size:5px;line-height:125%;font-family:Kailasa;-inkscape-font-specification:'Kailasa, Normal';text-align:center;writing-mode:lr-tb;text-anchor:middle"
         id="tspan4328-7" /></text>
<text
       xml:space="preserve"
       style="font-style:normal;font-weight:normal;font-size:40px;line-height:125%;font-family:sans-serif;letter-spacing:0px;word-spacing:0px;fill:#000000;fill-opacity:1;stroke:none;stroke-width:1px;stroke-linecap:butt;stroke-linejoin:miter;stroke-opacity:1"
       x="195.48737"
       y="245.21695"
       id="text4165-1-4-6-2-1-3-02"
       sodipodi:linespacing="125%"><tspan
         sodipodi:role="line"
         x="195.48737"
         y="245.21695"
         style="font-style:normal;font-variant:normal;font-weight:normal;font-stretch:normal;font-size:5px;line-height:125%;font-family:Kailasa;-inkscape-font-specification:'Kailasa, Normal';text-align:center;writing-mode:lr-tb;text-anchor:middle"
         id="tspan4328-73">Pallet</tspan><tspan
         sodipodi:role="line"
         x="195.48737"
         y="251.46695"
         style="font-style:normal;font-variant:normal;font-weight:normal;font-stretch:normal;font-size:5px;line-height:125%;font-family:Kailasa;-inkscape-font-specification:'Kailasa, Normal';text-align:center;writing-mode:lr-tb;text-anchor:middle"
         id="tspan4365">Town</tspan></text>
<text
       xml:space="preserve"
       style="font-style:normal;font-weight:normal;font-size:40px;line-height:125%;font-family:sans-serif;letter-spacing:0px;word-spacing:0px;fill:#000000;fill-opacity:1;stroke:none;stroke-width:1px;stroke-linecap:butt;stroke-linejoin:miter;stroke-opacity:1"
       x="156.28528"
       y="304.45987"
       id="text4165-1-4-6-2-1-3-02-6"
       sodipodi:linespacing="125%"><tspan
         sodipodi:role="line"
         x="156.28528"
         y="304.45987"
         style="font-style:normal;font-variant:normal;font-weight:normal;font-stretch:normal;font-size:5px;line-height:125%;font-family:Kailasa;-inkscape-font-specification:'Kailasa, Normal';text-align:center;writing-mode:lr-tb;text-anchor:middle"
         id="tspan4365-4">Cinnabar Island</tspan></text>
<text
       xml:space="preserve"
       style="font-style:normal;font-weight:normal;font-size:40px;line-height:125%;font-family:sans-serif;letter-spacing:0px;word-spacing:0px;fill:#000000;fill-opacity:1;stroke:none;stroke-width:1px;stroke-linecap:butt;stroke-linejoin:miter;stroke-opacity:1"
       x="420.55261"
       y="156.55489"
       id="text4165-1-4-6-2-1-3-3"
       sodipodi:linespacing="125%"><tspan
         sodipodi:role="line"
         x="420.55261"
         y="156.55489"
         style="font-style:normal;font-variant:normal;font-weight:normal;font-stretch:normal;font-size:5px;line-height:125%;font-family:Kailasa;-inkscape-font-specification:'Kailasa, Normal';text-align:center;writing-mode:lr-tb;text-anchor:middle"
         id="tspan4328-1">Lavender</tspan><tspan
         sodipodi:role="line"
         x="420.55261"
         y="162.80489"
         style="font-style:normal;font-variant:normal;font-weight:normal;font-stretch:normal;font-size:5px;line-height:125%;font-family:Kailasa;-inkscape-font-specification:'Kailasa, Normal';text-align:center;writing-mode:lr-tb;text-anchor:middle"
         id="tspan4413">Town</tspan></text>
<text
       xml:space="preserve"
       style="font-style:normal;font-weight:normal;font-size:40px;line-height:125%;font-family:sans-serif;letter-spacing:0px;word-spacing:0px;fill:#000000;fill-opacity:1;stroke:none;stroke-width:1px;stroke-linecap:butt;stroke-linejoin:miter;stroke-opacity:1"
       x="320.88828"
       y="107.74395"
       id="text4165-1-4-6-2-5"
       sodipodi:linespacing="125%"><tspan
         sodipodi:role="line"
         x="320.88828"
         y="107.74395"
         style="font-style:normal;font-variant:normal;font-weight:normal;font-stretch:normal;font-size:7.5px;line-height:125%;font-family:Kailasa;-inkscape-font-specification:'Kailasa, Normal';text-align:center;writing-mode:lr-tb;text-anchor:middle"
         id="tspan4205-4-5-2">Cerulean</tspan><tspan
         sodipodi:role="line"
         x="320.88828"
         y="117.11895"
         style="font-style:normal;font-variant:normal;font-weight:normal;font-stretch:normal;font-size:7.5px;line-height:125%;font-family:Kailasa;-inkscape-font-specification:'Kailasa, Normal';text-align:center;writing-mode:lr-tb;text-anchor:middle"
         id="tspan4274-9">City</tspan></text>
<text
       xml:space="preserve"
       style="font-style:normal;font-weight:normal;font-size:40px;line-height:125%;font-family:sans-serif;letter-spacing:0px;word-spacing:0px;fill:#000000;fill-opacity:1;stroke:none;stroke-width:1px;stroke-linecap:butt;stroke-linejoin:miter;stroke-opacity:1"
       x="263.3605"
       y="162.50224"
       id="text4165-1-4-6-2-8"
       sodipodi:linespacing="125%"><tspan
         sodipodi:role="line"
         x="263.3605"
         y="162.50224"
         style="font-style:normal;font-variant:normal;font-weight:normal;font-stretch:normal;font-size:7.5px;line-height:125%;font-family:Kailasa;-inkscape-font-specification:'Kailasa, Normal';text-align:center;writing-mode:lr-tb;text-anchor:middle"
         id="tspan4438-6">Celadon</tspan><tspan
         sodipodi:role="line"
         x="263.3605"
         y="171.87724"
         style="font-style:normal;font-variant:normal;font-weight:normal;font-stretch:normal;font-size:7.5px;line-height:125%;font-family:Kailasa;-inkscape-font-specification:'Kailasa, Normal';text-align:center;writing-mode:lr-tb;text-anchor:middle"
         id="tspan4463">City</tspan></text>
<text
       xml:space="preserve"
       style="font-style:normal;font-weight:normal;font-size:40px;line-height:125%;font-family:sans-serif;letter-spacing:0px;word-spacing:0px;fill:#000000;fill-opacity:1;stroke:none;stroke-width:1px;stroke-linecap:butt;stroke-linejoin:miter;stroke-opacity:1"
       x="320.78976"
       y="264.28"
       id="text4165-1-4-6-2-8-1"
       sodipodi:linespacing="125%"><tspan
         sodipodi:role="line"
         x="320.78976"
         y="264.28"
         style="font-style:normal;font-variant:normal;font-weight:normal;font-stretch:normal;font-size:7.5px;line-height:125%;font-family:Kailasa;-inkscape-font-specification:'Kailasa, Normal';text-align:center;writing-mode:lr-tb;text-anchor:middle"
         id="tspan4463-1">Fuchsia</tspan><tspan
         sodipodi:role="line"
         x="320.78976"
         y="273.655"
         style="font-style:normal;font-variant:normal;font-weight:normal;font-stretch:normal;font-size:7.5px;line-height:125%;font-family:Kailasa;-inkscape-font-specification:'Kailasa, Normal';text-align:center;writing-mode:lr-tb;text-anchor:middle"
         id="tspan4488">City</tspan></text>
</g></svg>